<?xml version="1.0" ?><!DOCTYPE svg  PUBLIC '-//W3C//DTD SVG 1.1//EN'  'http://www.w3.org/Graphics/SVG/1.1/DTD/svg11.dtd'><svg width="64px" height="64px" viewBox="0 0 64 64" style="fill-rule:evenodd;clip-rule:evenodd;stroke-linejoin:round;stroke-miterlimit:2;" version="1.1" xml:space="preserve" xmlns="http://www.w3.org/2000/svg" xmlns:serif="http://www.serif.com/" xmlns:xlink="http://www.w3.org/1999/xlink"><g transform="matrix(1,0,0,1,-384,0)"><g id="Icon"><path d="M396.943,60L434.992,60C435.437,60 435.828,59.706 435.952,59.279C441.235,41.093 441.259,22.906 435.952,4.72C435.827,4.293 435.436,4 434.992,4C434.992,4 396.992,4 396.992,4C396.548,4 396.156,4.293 396.032,4.72C390.755,22.804 390.749,40.889 395.943,58.973L395.943,59C395.943,59.552 396.391,60 396.943,60Z" style="fill:rgb(255,252,92);"/><path d="M429.545,4C429.989,4 430.38,4.293 430.505,4.72C435.812,22.906 435.788,41.093 430.505,59.279C430.381,59.706 429.99,60 429.545,60L434.992,60C435.437,60 435.828,59.706 435.952,59.279C441.235,41.093 441.259,22.906 435.952,4.72C435.827,4.293 435.436,4 434.992,4L429.545,4Z" style="fill:rgb(254,250,34);"/><path d="M394.5,53.369C394.926,55.236 395.407,57.104 395.943,58.973L395.943,59C395.943,59.552 396.391,60 396.943,60L434.992,60C435.437,60 435.828,59.706 435.952,59.279L436.001,59.111L436.008,59.085L436.055,58.924L436.063,58.894L436.109,58.732L436.116,58.71L436.165,58.538L436.211,58.372L436.219,58.345L436.264,58.184L436.272,58.155L436.318,57.99L436.371,57.798L436.417,57.631L436.423,57.606L436.468,57.441L436.474,57.42L436.52,57.248L436.571,57.06L436.617,56.887L436.621,56.87L436.669,56.689L436.716,56.509L436.764,56.324L436.812,56.138C437.05,55.215 437.273,54.292 437.484,53.369L394.5,53.369Z" style="fill:rgb(181,129,49);"/><path d="M432.037,53.369C431.588,55.34 431.077,57.309 430.505,59.279C430.381,59.706 429.99,60 429.545,60L434.992,60L435.002,60C435.443,59.995 435.829,59.703 435.952,59.279L436.371,57.798L436.764,56.324L436.812,56.138C437.05,55.215 437.273,54.292 437.484,53.369L432.037,53.369Z" style="fill:rgb(154,110,42);"/><path d="M394.495,10.631L437.489,10.631C437.039,8.659 436.527,6.689 435.952,4.72C435.827,4.293 435.436,4 434.992,4C434.992,4 396.992,4 396.992,4C396.548,4 396.156,4.293 396.032,4.72C395.457,6.691 394.944,8.662 394.495,10.631Z" style="fill:rgb(181,129,49);"/><path d="M434.992,4L429.545,4C429.989,4 430.38,4.293 430.505,4.72C431.08,6.689 431.592,8.659 432.042,10.631L437.489,10.631C437.236,9.522 436.963,8.413 436.67,7.305L436.623,7.126L436.571,6.933L436.522,6.751L436.475,6.577L436.47,6.559L436.425,6.392L436.419,6.369L436.372,6.2L436.319,6.009L436.273,5.843L436.265,5.816L436.22,5.654L436.212,5.627L436.165,5.461L436.116,5.289L436.11,5.267L436.063,5.105L436.055,5.074L436.008,4.914L436.001,4.888L435.952,4.72C435.827,4.293 435.436,4 434.992,4Z" style="fill:rgb(154,110,42);"/><circle cx="415.992" cy="32" r="12.802" style="fill:white;"/><path d="M410.507,36.603C410.898,36.993 411.531,36.993 411.921,36.603L420.595,27.929C420.985,27.539 420.985,26.906 420.595,26.515C417.811,23.731 413.291,23.731 410.507,26.515C407.723,29.299 407.723,33.819 410.507,36.603Z" style="fill:rgb(255,252,92);"/><path d="M422.047,30.72C421.656,30.33 421.023,30.33 420.632,30.72L414.712,36.64C414.321,37.031 414.321,37.664 414.712,38.055C416.736,40.079 420.023,40.079 422.047,38.055C424.071,36.031 424.071,32.744 422.047,30.72Z" style="fill:rgb(255,252,92);"/><g transform="matrix(1,0,0,1.20196,10.8159,-347.175)"><path d="M415.01,293L415.01,295C415.01,295.459 415.458,295.832 416.01,295.832C416.562,295.832 417.01,295.459 417.01,295L417.01,293C417.01,292.541 416.562,292.168 416.01,292.168C415.458,292.168 415.01,292.541 415.01,293Z" style="fill:white;"/></g><g transform="matrix(1,0,0,1.20196,5.39912,-347.175)"><path d="M415.01,293L415.01,295C415.01,295.459 415.458,295.832 416.01,295.832C416.562,295.832 417.01,295.459 417.01,295L417.01,293C417.01,292.541 416.562,292.168 416.01,292.168C415.458,292.168 415.01,292.541 415.01,293Z" style="fill:white;"/></g><g transform="matrix(1,0,0,1.20196,-5.43445,-347.175)"><path d="M415.01,293L415.01,295C415.01,295.459 415.458,295.832 416.01,295.832C416.562,295.832 417.01,295.459 417.01,295L417.01,293C417.01,292.541 416.562,292.168 416.01,292.168C415.458,292.168 415.01,292.541 415.01,293Z" style="fill:white;"/></g><g transform="matrix(1,0,0,1.20196,-10.8512,-347.175)"><path d="M415.01,293L415.01,295C415.01,295.459 415.458,295.832 416.01,295.832C416.562,295.832 417.01,295.459 417.01,295L417.01,293C417.01,292.541 416.562,292.168 416.01,292.168C415.458,292.168 415.01,292.541 415.01,293Z" style="fill:white;"/></g><g transform="matrix(1,0,0,1.20196,-16.268,-347.175)"><path d="M415.01,293L415.01,295C415.01,295.459 415.458,295.832 416.01,295.832C416.562,295.832 417.01,295.459 417.01,295L417.01,293C417.01,292.541 416.562,292.168 416.01,292.168C415.458,292.168 415.01,292.541 415.01,293Z" style="fill:white;"/></g><g transform="matrix(1,0,0,1.20196,16.2327,-347.175)"><path d="M415.01,293L415.01,295C415.01,295.459 415.458,295.832 416.01,295.832C416.562,295.832 417.01,295.459 417.01,295L417.01,293C417.01,292.541 416.562,292.168 416.01,292.168C415.458,292.168 415.01,292.541 415.01,293Z" style="fill:white;"/></g><g transform="matrix(1,0,0,1.20196,-0.0176651,-347.175)"><path d="M415.01,293L415.01,295C415.01,295.459 415.458,295.832 416.01,295.832C416.562,295.832 417.01,295.459 417.01,295L417.01,293C417.01,292.541 416.562,292.168 416.01,292.168C415.458,292.168 415.01,292.541 415.01,293Z" style="fill:white;"/></g><g transform="matrix(1,0,0,1.20196,10.8159,-295.579)"><path d="M415.01,293L415.01,295C415.01,295.459 415.458,295.832 416.01,295.832C416.562,295.832 417.01,295.459 417.01,295L417.01,293C417.01,292.541 416.562,292.168 416.01,292.168C415.458,292.168 415.01,292.541 415.01,293Z" style="fill:white;"/></g><g transform="matrix(1,0,0,1.20196,5.39912,-295.579)"><path d="M415.01,293L415.01,295C415.01,295.459 415.458,295.832 416.01,295.832C416.562,295.832 417.01,295.459 417.01,295L417.01,293C417.01,292.541 416.562,292.168 416.01,292.168C415.458,292.168 415.01,292.541 415.01,293Z" style="fill:white;"/></g><g transform="matrix(1,0,0,1.20196,-5.43445,-295.579)"><path d="M415.01,293L415.01,295C415.01,295.459 415.458,295.832 416.01,295.832C416.562,295.832 417.01,295.459 417.01,295L417.01,293C417.01,292.541 416.562,292.168 416.01,292.168C415.458,292.168 415.01,292.541 415.01,293Z" style="fill:white;"/></g><g transform="matrix(1,0,0,1.20196,-10.8512,-295.579)"><path d="M415.01,293L415.01,295C415.01,295.459 415.458,295.832 416.01,295.832C416.562,295.832 417.01,295.459 417.01,295L417.01,293C417.01,292.541 416.562,292.168 416.01,292.168C415.458,292.168 415.01,292.541 415.01,293Z" style="fill:white;"/></g><g transform="matrix(1,0,0,1.20196,-16.268,-295.579)"><path d="M415.01,293L415.01,295C415.01,295.459 415.458,295.832 416.01,295.832C416.562,295.832 417.01,295.459 417.01,295L417.01,293C417.01,292.541 416.562,292.168 416.01,292.168C415.458,292.168 415.01,292.541 415.01,293Z" style="fill:white;"/></g><g transform="matrix(1,0,0,1.20196,16.2327,-295.579)"><path d="M415.01,293L415.01,295C415.01,295.459 415.458,295.832 416.01,295.832C416.562,295.832 417.01,295.459 417.01,295L417.01,293C417.01,292.541 416.562,292.168 416.01,292.168C415.458,292.168 415.01,292.541 415.01,293Z" style="fill:white;"/></g><g transform="matrix(1,0,0,1.20196,-0.0176651,-295.579)"><path d="M415.01,293L415.01,295C415.01,295.459 415.458,295.832 416.01,295.832C416.562,295.832 417.01,295.459 417.01,295L417.01,293C417.01,292.541 416.562,292.168 416.01,292.168C415.458,292.168 415.01,292.541 415.01,293Z" style="fill:white;"/></g></g></g></svg>